# xmcd CD database file
# Copyright (C) 1993-1998 Ti Kan
# 
# Track frame offsets:
#     182
#     15262
#     28405
#     42410
#     56345
#     68167
#     80925
#     93457
#     106122
#     119427
#     131150
#     144490
#     158162
#     172247
#     185110
#     195392
# 
# Disc length: 2764 seconds
# 
# Revision: 1
# Processed by: cddbd v1.4b41PL1 Copyright (c) Steve Scherf et al.
# Submitted via: DiscPlay 4.0.4
# 
DISCID=e50aca10
DTITLE=Billie Holiday - Vol. 2 "Long Gone Blues"
DYEAR=1900
DGENRE=
TTITLE0=Love Me Or Leave Me
TTITLE1=Laughing At Life
TTITLE2=Long Gone Blues
TTITLE3=Time On My Hands
TTITLE4=Practice Makes Perfect
TTITLE5=I Can't Get Started
TTITLE6=The Very Thought Of You
TTITLE7=Sugar
TTITLE8=God Bless The Child
TTITLE9=Say It With A Kiss
TTITLE10=I Cover The Waterfront
TTITLE11=All Of Me
TTITLE12=More Than You Know
TTITLE13=Them There Eyes
TTITLE14=Romance In The Dark
TTITLE15=I Hear Music
EXTD=
EXTT0=
EXTT1=
EXTT2=
EXTT3=
EXTT4=
EXTT5=
EXTT6=
EXTT7=
EXTT8=
EXTT9=
EXTT10=
EXTT11=
EXTT12=
EXTT13=
EXTT14=
EXTT15=
PLAYORDER=
